<mxfile host="app.diagrams.net" agent="Mozilla/5.0 (Windows NT 10.0; Win64; x64) AppleWebKit/537.36 (KHTML, like Gecko) Chrome/128.0.0.0 Safari/537.36" version="24.7.12">
  <diagram id="C5RBs43oDa-KdzZeNtuy" name="Page-1">
    <mxGraphModel dx="880" dy="468" grid="1" gridSize="10" guides="1" tooltips="1" connect="1" arrows="1" fold="1" page="1" pageScale="1" pageWidth="827" pageHeight="1169" math="0" shadow="0">
      <root>
        <mxCell id="WIyWlLk6GJQsqaUBKTNV-0" />
        <mxCell id="WIyWlLk6GJQsqaUBKTNV-1" parent="WIyWlLk6GJQsqaUBKTNV-0" />
        <mxCell id="TAY35BylL7llZ21c4-hC-2" value="" style="edgeStyle=orthogonalEdgeStyle;rounded=0;orthogonalLoop=1;jettySize=auto;html=1;" edge="1" parent="WIyWlLk6GJQsqaUBKTNV-1" source="TAY35BylL7llZ21c4-hC-0" target="TAY35BylL7llZ21c4-hC-1">
          <mxGeometry relative="1" as="geometry" />
        </mxCell>
        <mxCell id="TAY35BylL7llZ21c4-hC-0" value="mulai" style="ellipse;whiteSpace=wrap;html=1;" vertex="1" parent="WIyWlLk6GJQsqaUBKTNV-1">
          <mxGeometry x="160" y="150" width="120" height="80" as="geometry" />
        </mxCell>
        <mxCell id="TAY35BylL7llZ21c4-hC-4" value="" style="edgeStyle=orthogonalEdgeStyle;rounded=0;orthogonalLoop=1;jettySize=auto;html=1;" edge="1" parent="WIyWlLk6GJQsqaUBKTNV-1" source="TAY35BylL7llZ21c4-hC-1" target="TAY35BylL7llZ21c4-hC-3">
          <mxGeometry relative="1" as="geometry" />
        </mxCell>
        <mxCell id="TAY35BylL7llZ21c4-hC-28" value="" style="edgeStyle=orthogonalEdgeStyle;rounded=0;orthogonalLoop=1;jettySize=auto;html=1;" edge="1" parent="WIyWlLk6GJQsqaUBKTNV-1" source="TAY35BylL7llZ21c4-hC-1" target="TAY35BylL7llZ21c4-hC-27">
          <mxGeometry relative="1" as="geometry" />
        </mxCell>
        <mxCell id="TAY35BylL7llZ21c4-hC-1" value="for i=1 to 10" style="shape=hexagon;perimeter=hexagonPerimeter2;whiteSpace=wrap;html=1;fixedSize=1;" vertex="1" parent="WIyWlLk6GJQsqaUBKTNV-1">
          <mxGeometry x="160" y="310" width="120" height="80" as="geometry" />
        </mxCell>
        <mxCell id="TAY35BylL7llZ21c4-hC-17" value="" style="edgeStyle=orthogonalEdgeStyle;rounded=0;orthogonalLoop=1;jettySize=auto;html=1;" edge="1" parent="WIyWlLk6GJQsqaUBKTNV-1" source="TAY35BylL7llZ21c4-hC-3" target="TAY35BylL7llZ21c4-hC-16">
          <mxGeometry relative="1" as="geometry" />
        </mxCell>
        <mxCell id="TAY35BylL7llZ21c4-hC-20" value="" style="edgeStyle=orthogonalEdgeStyle;rounded=0;orthogonalLoop=1;jettySize=auto;html=1;" edge="1" parent="WIyWlLk6GJQsqaUBKTNV-1" source="TAY35BylL7llZ21c4-hC-5" target="TAY35BylL7llZ21c4-hC-6">
          <mxGeometry relative="1" as="geometry" />
        </mxCell>
        <mxCell id="TAY35BylL7llZ21c4-hC-3" value="i mod 2 = 1" style="rhombus;whiteSpace=wrap;html=1;" vertex="1" parent="WIyWlLk6GJQsqaUBKTNV-1">
          <mxGeometry x="150" y="470" width="140" height="80" as="geometry" />
        </mxCell>
        <mxCell id="TAY35BylL7llZ21c4-hC-6" value="print (i adalah ganjil)" style="shape=parallelogram;perimeter=parallelogramPerimeter;whiteSpace=wrap;html=1;fixedSize=1;" vertex="1" parent="WIyWlLk6GJQsqaUBKTNV-1">
          <mxGeometry x="400" y="480" width="190" height="60" as="geometry" />
        </mxCell>
        <mxCell id="TAY35BylL7llZ21c4-hC-25" value="" style="edgeStyle=orthogonalEdgeStyle;rounded=0;orthogonalLoop=1;jettySize=auto;html=1;" edge="1" parent="WIyWlLk6GJQsqaUBKTNV-1" source="TAY35BylL7llZ21c4-hC-16" target="TAY35BylL7llZ21c4-hC-24">
          <mxGeometry relative="1" as="geometry" />
        </mxCell>
        <mxCell id="TAY35BylL7llZ21c4-hC-16" value="print (i adalah genap0" style="shape=parallelogram;perimeter=parallelogramPerimeter;whiteSpace=wrap;html=1;fixedSize=1;" vertex="1" parent="WIyWlLk6GJQsqaUBKTNV-1">
          <mxGeometry x="125" y="620" width="190" height="60" as="geometry" />
        </mxCell>
        <mxCell id="TAY35BylL7llZ21c4-hC-18" value="false" style="text;html=1;align=center;verticalAlign=middle;whiteSpace=wrap;rounded=0;" vertex="1" parent="WIyWlLk6GJQsqaUBKTNV-1">
          <mxGeometry x="190" y="560" width="60" height="30" as="geometry" />
        </mxCell>
        <mxCell id="TAY35BylL7llZ21c4-hC-21" value="" style="edgeStyle=orthogonalEdgeStyle;rounded=0;orthogonalLoop=1;jettySize=auto;html=1;" edge="1" parent="WIyWlLk6GJQsqaUBKTNV-1" source="TAY35BylL7llZ21c4-hC-3" target="TAY35BylL7llZ21c4-hC-5">
          <mxGeometry relative="1" as="geometry">
            <mxPoint x="290" y="510" as="sourcePoint" />
            <mxPoint x="410" y="510" as="targetPoint" />
          </mxGeometry>
        </mxCell>
        <mxCell id="TAY35BylL7llZ21c4-hC-5" value="true" style="text;html=1;align=center;verticalAlign=middle;whiteSpace=wrap;rounded=0;" vertex="1" parent="WIyWlLk6GJQsqaUBKTNV-1">
          <mxGeometry x="310" y="495" width="60" height="30" as="geometry" />
        </mxCell>
        <mxCell id="TAY35BylL7llZ21c4-hC-24" value="" style="ellipse;whiteSpace=wrap;html=1;rotation=90;" vertex="1" parent="WIyWlLk6GJQsqaUBKTNV-1">
          <mxGeometry x="177.5" y="747.5" width="85" height="70" as="geometry" />
        </mxCell>
        <mxCell id="TAY35BylL7llZ21c4-hC-26" value="" style="endArrow=none;dashed=1;html=1;dashPattern=1 3;strokeWidth=2;rounded=0;entryX=0.5;entryY=1;entryDx=0;entryDy=0;exitX=0;exitY=0.5;exitDx=0;exitDy=0;" edge="1" parent="WIyWlLk6GJQsqaUBKTNV-1" target="TAY35BylL7llZ21c4-hC-24">
          <mxGeometry width="50" height="50" relative="1" as="geometry">
            <mxPoint x="155" y="350" as="sourcePoint" />
            <mxPoint x="190" y="622.5" as="targetPoint" />
            <Array as="points">
              <mxPoint x="65" y="350" />
              <mxPoint x="70" y="783" />
            </Array>
          </mxGeometry>
        </mxCell>
        <mxCell id="TAY35BylL7llZ21c4-hC-27" value="selesai" style="ellipse;whiteSpace=wrap;html=1;" vertex="1" parent="WIyWlLk6GJQsqaUBKTNV-1">
          <mxGeometry x="620" y="640" width="120" height="80" as="geometry" />
        </mxCell>
      </root>
    </mxGraphModel>
  </diagram>
</mxfile>
